<svg id="visual" viewBox="0 0 960 540" width="960" height="540" xmlns="http://www.w3.org/2000/svg" xmlns:xlink="http://www.w3.org/1999/xlink" version="1.1"><rect x="0" y="0" width="960" height="540" fill="#001220"></rect><defs><linearGradient id="grad1_0" x1="43.8%" y1="0%" x2="100%" y2="100%"><stop offset="14.444444444444446%" stop-color="#565656" stop-opacity="1"></stop><stop offset="85.55555555555554%" stop-color="#565656" stop-opacity="1"></stop></linearGradient></defs><defs><linearGradient id="grad1_1" x1="43.8%" y1="0%" x2="100%" y2="100%"><stop offset="14.444444444444446%" stop-color="#565656" stop-opacity="1"></stop><stop offset="85.55555555555554%" stop-color="#2c323a" stop-opacity="1"></stop></linearGradient></defs><defs><linearGradient id="grad1_2" x1="43.8%" y1="0%" x2="100%" y2="100%"><stop offset="14.444444444444446%" stop-color="#001220" stop-opacity="1"></stop><stop offset="85.55555555555554%" stop-color="#2c323a" stop-opacity="1"></stop></linearGradient></defs><defs><linearGradient id="grad2_0" x1="0%" y1="0%" x2="56.3%" y2="100%"><stop offset="14.444444444444446%" stop-color="#565656" stop-opacity="1"></stop><stop offset="85.55555555555554%" stop-color="#565656" stop-opacity="1"></stop></linearGradient></defs><defs><linearGradient id="grad2_1" x1="0%" y1="0%" x2="56.3%" y2="100%"><stop offset="14.444444444444446%" stop-color="#2c323a" stop-opacity="1"></stop><stop offset="85.55555555555554%" stop-color="#565656" stop-opacity="1"></stop></linearGradient></defs><defs><linearGradient id="grad2_2" x1="0%" y1="0%" x2="56.3%" y2="100%"><stop offset="14.444444444444446%" stop-color="#2c323a" stop-opacity="1"></stop><stop offset="85.55555555555554%" stop-color="#001220" stop-opacity="1"></stop></linearGradient></defs><g transform="translate(960, 0)"><path d="M0 540C-47.3 497.3 -94.5 454.6 -140.6 432.7C-186.7 410.8 -231.6 409.6 -289.2 398C-346.7 386.4 -416.9 364.4 -436.9 317.4C-456.9 270.4 -426.8 198.6 -435.6 141.5C-444.4 84.5 -492.2 42.2 -540 0L0 0Z" fill="#18222d"></path><path d="M0 360C-31.5 331.5 -63 303.1 -93.7 288.5C-124.5 273.9 -154.4 273.1 -192.8 265.4C-231.2 257.6 -277.9 242.9 -291.2 211.6C-304.6 180.3 -284.5 132.4 -290.4 94.4C-296.3 56.3 -328.1 28.2 -360 0L0 0Z" fill="#414448"></path><path d="M0 180C-15.8 165.8 -31.5 151.5 -46.9 144.2C-62.2 136.9 -77.2 136.5 -96.4 132.7C-115.6 128.8 -139 121.5 -145.6 105.8C-152.3 90.1 -142.3 66.2 -145.2 47.2C-148.1 28.2 -164.1 14.1 -180 0L0 0Z" fill="#565656"></path></g><g transform="translate(0, 540)"><path d="M0 -540C53.2 -527.6 106.4 -515.2 161.6 -497.4C216.8 -479.6 273.9 -456.3 298 -410.2C322.1 -364 313.1 -295 351.1 -255.1C389.2 -215.2 474.2 -204.5 513.6 -166.9C552.9 -129.2 546.4 -64.6 540 0L0 0Z" fill="#18222d"></path><path d="M0 -360C35.5 -351.7 71 -343.5 107.7 -331.6C144.5 -319.7 182.6 -304.2 198.7 -273.4C214.7 -242.7 208.7 -196.6 234.1 -170.1C259.4 -143.5 316.2 -136.3 342.4 -111.2C368.6 -86.1 364.3 -43.1 360 0L0 0Z" fill="#414448"></path><path d="M0 -180C17.7 -175.9 35.5 -171.7 53.9 -165.8C72.3 -159.9 91.3 -152.1 99.3 -136.7C107.4 -121.3 104.4 -98.3 117 -85C129.7 -71.7 158.1 -68.2 171.2 -55.6C184.3 -43.1 182.1 -21.5 180 0L0 0Z" fill="#565656"></path></g></svg>