<svg id="visual" viewBox="0 0 960 540" width="960" height="540" xmlns="http://www.w3.org/2000/svg" xmlns:xlink="http://www.w3.org/1999/xlink" version="1.1"><rect x="0" y="0" width="960" height="540" fill="#2d2d2d"></rect><defs><linearGradient id="grad1_0" x1="43.8%" y1="0%" x2="100%" y2="100%"><stop offset="14.444444444444446%" stop-color="#b57541" stop-opacity="1"></stop><stop offset="85.55555555555554%" stop-color="#b57541" stop-opacity="1"></stop></linearGradient></defs><defs><linearGradient id="grad1_1" x1="43.8%" y1="0%" x2="100%" y2="100%"><stop offset="14.444444444444446%" stop-color="#b57541" stop-opacity="1"></stop><stop offset="85.55555555555554%" stop-color="#a16a3f" stop-opacity="1"></stop></linearGradient></defs><defs><linearGradient id="grad1_2" x1="43.8%" y1="0%" x2="100%" y2="100%"><stop offset="14.444444444444446%" stop-color="#8d5f3c" stop-opacity="1"></stop><stop offset="85.55555555555554%" stop-color="#a16a3f" stop-opacity="1"></stop></linearGradient></defs><defs><linearGradient id="grad1_3" x1="43.8%" y1="0%" x2="100%" y2="100%"><stop offset="14.444444444444446%" stop-color="#8d5f3c" stop-opacity="1"></stop><stop offset="85.55555555555554%" stop-color="#795539" stop-opacity="1"></stop></linearGradient></defs><defs><linearGradient id="grad1_4" x1="43.8%" y1="0%" x2="100%" y2="100%"><stop offset="14.444444444444446%" stop-color="#664b36" stop-opacity="1"></stop><stop offset="85.55555555555554%" stop-color="#795539" stop-opacity="1"></stop></linearGradient></defs><defs><linearGradient id="grad1_5" x1="43.8%" y1="0%" x2="100%" y2="100%"><stop offset="14.444444444444446%" stop-color="#664b36" stop-opacity="1"></stop><stop offset="85.55555555555554%" stop-color="#534133" stop-opacity="1"></stop></linearGradient></defs><defs><linearGradient id="grad1_6" x1="43.8%" y1="0%" x2="100%" y2="100%"><stop offset="14.444444444444446%" stop-color="#403730" stop-opacity="1"></stop><stop offset="85.55555555555554%" stop-color="#534133" stop-opacity="1"></stop></linearGradient></defs><defs><linearGradient id="grad1_7" x1="43.8%" y1="0%" x2="100%" y2="100%"><stop offset="14.444444444444446%" stop-color="#403730" stop-opacity="1"></stop><stop offset="85.55555555555554%" stop-color="#2d2d2d" stop-opacity="1"></stop></linearGradient></defs><defs><linearGradient id="grad2_0" x1="0%" y1="0%" x2="56.3%" y2="100%"><stop offset="14.444444444444446%" stop-color="#b57541" stop-opacity="1"></stop><stop offset="85.55555555555554%" stop-color="#b57541" stop-opacity="1"></stop></linearGradient></defs><defs><linearGradient id="grad2_1" x1="0%" y1="0%" x2="56.3%" y2="100%"><stop offset="14.444444444444446%" stop-color="#a16a3f" stop-opacity="1"></stop><stop offset="85.55555555555554%" stop-color="#b57541" stop-opacity="1"></stop></linearGradient></defs><defs><linearGradient id="grad2_2" x1="0%" y1="0%" x2="56.3%" y2="100%"><stop offset="14.444444444444446%" stop-color="#a16a3f" stop-opacity="1"></stop><stop offset="85.55555555555554%" stop-color="#8d5f3c" stop-opacity="1"></stop></linearGradient></defs><defs><linearGradient id="grad2_3" x1="0%" y1="0%" x2="56.3%" y2="100%"><stop offset="14.444444444444446%" stop-color="#795539" stop-opacity="1"></stop><stop offset="85.55555555555554%" stop-color="#8d5f3c" stop-opacity="1"></stop></linearGradient></defs><defs><linearGradient id="grad2_4" x1="0%" y1="0%" x2="56.3%" y2="100%"><stop offset="14.444444444444446%" stop-color="#795539" stop-opacity="1"></stop><stop offset="85.55555555555554%" stop-color="#664b36" stop-opacity="1"></stop></linearGradient></defs><defs><linearGradient id="grad2_5" x1="0%" y1="0%" x2="56.3%" y2="100%"><stop offset="14.444444444444446%" stop-color="#534133" stop-opacity="1"></stop><stop offset="85.55555555555554%" stop-color="#664b36" stop-opacity="1"></stop></linearGradient></defs><defs><linearGradient id="grad2_6" x1="0%" y1="0%" x2="56.3%" y2="100%"><stop offset="14.444444444444446%" stop-color="#534133" stop-opacity="1"></stop><stop offset="85.55555555555554%" stop-color="#403730" stop-opacity="1"></stop></linearGradient></defs><defs><linearGradient id="grad2_7" x1="0%" y1="0%" x2="56.3%" y2="100%"><stop offset="14.444444444444446%" stop-color="#2d2d2d" stop-opacity="1"></stop><stop offset="85.55555555555554%" stop-color="#403730" stop-opacity="1"></stop></linearGradient></defs><g transform="translate(960, 0)"><path d="M0 540C-95 526.2 -190.1 512.4 -270 467.7C-349.9 422.9 -414.8 347.1 -457.3 264C-499.7 180.9 -519.9 90.4 -540 0L0 0Z" fill="#37322f"></path><path d="M0 472.5C-83.2 460.4 -166.3 448.4 -236.2 409.2C-306.2 370 -362.9 303.7 -400.1 231C-437.3 158.3 -454.9 79.1 -472.5 0L0 0Z" fill="#493c32"></path><path d="M0 405C-71.3 394.7 -142.5 384.3 -202.5 350.7C-262.5 317.2 -311.1 260.3 -342.9 198C-374.8 135.7 -389.9 67.8 -405 0L0 0Z" fill="#5c4635"></path><path d="M0 337.5C-59.4 328.9 -118.8 320.3 -168.7 292.3C-218.7 264.3 -259.2 216.9 -285.8 165C-312.3 113.1 -324.9 56.5 -337.5 0L0 0Z" fill="#6f5038"></path><path d="M0 270C-47.5 263.1 -95 256.2 -135 233.8C-175 211.4 -207.4 173.6 -228.6 132C-249.9 90.4 -259.9 45.2 -270 0L0 0Z" fill="#835a3b"></path><path d="M0 202.5C-35.6 197.3 -71.3 192.2 -101.2 175.4C-131.2 158.6 -155.5 130.2 -171.5 99C-187.4 67.8 -195 33.9 -202.5 0L0 0Z" fill="#97653d"></path><path d="M0 135C-23.8 131.6 -47.5 128.1 -67.5 116.9C-87.5 105.7 -103.7 86.8 -114.3 66C-124.9 45.2 -130 22.6 -135 0L0 0Z" fill="#ab7040"></path><path d="M0 67.5C-11.9 65.8 -23.8 64.1 -33.7 58.5C-43.7 52.9 -51.8 43.4 -57.2 33C-62.5 22.6 -65 11.3 -67.5 0L0 0Z" fill="#b57541"></path></g><g transform="translate(0, 540)"><path d="M0 -540C102.9 -530.7 205.8 -521.5 270 -467.7C334.2 -413.8 359.8 -315.4 398.4 -230C436.9 -144.6 488.5 -72.3 540 0L0 0Z" fill="#37322f"></path><path d="M0 -472.5C90 -464.4 180 -456.3 236.2 -409.2C292.5 -362.1 314.8 -276 348.6 -201.3C382.3 -126.5 427.4 -63.3 472.5 0L0 0Z" fill="#493c32"></path><path d="M0 -405C77.2 -398.1 154.3 -391.1 202.5 -350.7C250.7 -310.4 269.9 -236.5 298.8 -172.5C327.7 -108.5 366.3 -54.2 405 0L0 0Z" fill="#5c4635"></path><path d="M0 -337.5C64.3 -331.7 128.6 -325.9 168.7 -292.3C208.9 -258.6 224.9 -197.1 249 -143.8C273.1 -90.4 305.3 -45.2 337.5 0L0 0Z" fill="#6f5038"></path><path d="M0 -270C51.4 -265.4 102.9 -260.7 135 -233.8C167.1 -206.9 179.9 -157.7 199.2 -115C218.5 -72.3 244.2 -36.2 270 0L0 0Z" fill="#835a3b"></path><path d="M0 -202.5C38.6 -199 77.2 -195.6 101.2 -175.4C125.3 -155.2 134.9 -118.3 149.4 -86.3C163.8 -54.2 183.2 -27.1 202.5 0L0 0Z" fill="#97653d"></path><path d="M0 -135C25.7 -132.7 51.4 -130.4 67.5 -116.9C83.6 -103.5 90 -78.8 99.6 -57.5C109.2 -36.2 122.1 -18.1 135 0L0 0Z" fill="#ab7040"></path><path d="M0 -67.5C12.9 -66.3 25.7 -65.2 33.7 -58.5C41.8 -51.7 45 -39.4 49.8 -28.8C54.6 -18.1 61.1 -9 67.5 0L0 0Z" fill="#b57541"></path></g></svg>